<svg version="1.1" id="Layer_1" xmlns="http://www.w3.org/2000/svg" xmlns:xlink="http://www.w3.org/1999/xlink" x="0px" y="0px" width="100%" viewBox="0 0 500 500" enable-background="new 0 0 500 500" xml:space="preserve">
    <path fill="#ffffff" opacity="1.000000" stroke="none" d="
M237.000000,501.000000 
	C158.000015,501.000000 79.500038,501.000000 1.000042,501.000000 
	C1.000028,334.333405 1.000028,167.666779 1.000014,1.000132 
	C167.666565,1.000088 334.333130,1.000088 500.999756,1.000044 
	C500.999847,167.666519 500.999847,334.333038 500.999939,500.999786 
	C413.166656,501.000000 325.333344,501.000000 237.000000,501.000000 
M186.454117,150.811066 
	C192.928772,153.280380 195.498505,158.853439 197.387527,164.841064 
	C210.141785,205.268127 222.815247,245.720734 235.614471,286.133514 
	C236.618393,289.303314 236.675095,291.507477 233.776917,293.886322 
	C227.425720,299.099396 224.640076,306.429565 225.286743,314.321075 
	C226.616882,330.552734 240.514618,340.488770 256.668304,337.631622 
	C261.073334,336.852539 265.555695,336.504486 270.006226,335.990204 
	C285.505005,334.199280 301.007690,332.441437 316.504578,330.634399 
	C332.493378,328.770020 348.480988,326.894196 364.461517,324.960419 
	C371.869720,324.063965 379.268768,323.079742 386.654999,322.017365 
	C391.242645,321.357513 393.363220,318.479065 392.829010,313.947357 
	C392.296021,309.425812 389.144958,307.815796 385.006744,308.059448 
	C379.376068,308.390991 373.745728,308.849426 368.141510,309.485229 
	C352.475983,311.262512 336.824463,313.162872 321.166534,315.007507 
	C305.344482,316.871460 289.525665,318.764069 273.696960,320.570160 
	C265.948822,321.454285 258.194489,322.360077 250.418045,322.892273 
	C245.685333,323.216217 241.994949,320.269196 241.012527,316.141907 
	C240.278625,313.058655 241.076233,308.496948 243.053894,306.189697 
	C245.106064,303.795563 249.298965,302.649384 252.731644,302.137329 
	C262.411682,300.693298 272.188538,299.909912 281.915466,298.765869 
	C300.868744,296.536652 319.812561,294.227234 338.763031,291.973846 
	C353.101074,290.268890 367.448181,288.638733 381.780914,286.890625 
	C386.182404,286.353790 388.616455,283.678802 388.925995,279.250854 
	C390.315674,259.374237 391.643860,239.493317 393.046051,219.617630 
	C393.466431,213.659363 394.138031,207.718658 394.548279,201.759842 
	C395.403595,189.336655 396.318115,176.913788 396.876343,164.475876 
	C397.078979,159.959747 393.118134,156.714798 388.654541,157.190674 
	C382.387329,157.858826 376.146820,158.773590 369.887909,159.524780 
	C354.562927,161.364105 339.235138,163.180817 323.906158,164.986618 
	C307.755219,166.889236 291.602844,168.779404 275.448761,170.655106 
	C259.950500,172.454681 244.476807,174.540054 228.940628,175.916565 
	C216.273346,177.038879 216.257935,176.652054 212.810486,164.039108 
	C210.453705,155.416550 207.219803,147.267639 199.918198,141.472397 
	C191.901733,135.109756 182.993271,133.286667 172.787903,134.772568 
	C157.356842,137.019318 141.791672,138.341187 126.287300,140.089935 
	C120.002632,140.798798 116.760780,143.799561 117.101212,148.457474 
	C117.438553,153.073227 120.438354,155.047592 127.028633,154.984726 
	C127.861641,154.976791 128.703079,155.013626 129.525986,154.911682 
	C142.041092,153.361206 154.528625,151.524612 167.077774,150.339142 
	C173.245728,149.756470 179.526855,150.371643 186.454117,150.811066 
M101.351723,272.943451 
	C118.159203,270.949738 134.965103,268.942596 151.774689,266.966919 
	C163.641769,265.572083 175.522842,264.292053 187.379547,262.815399 
	C192.570602,262.168915 195.943771,258.454926 195.487976,254.372910 
	C195.022049,250.200272 191.899750,247.758545 186.265167,248.094086 
	C179.147629,248.517944 172.055313,249.430374 164.966171,250.253235 
	C145.848160,252.472275 126.739166,254.768829 107.623543,257.008545 
	C95.756226,258.398987 83.876694,259.687378 72.016327,261.133789 
	C67.430046,261.693085 64.782768,264.981232 65.071724,269.304413 
	C65.367889,273.735321 67.693672,275.800598 72.738922,275.949005 
	C74.562561,276.002655 76.406342,275.911804 78.219109,275.700012 
	C85.633850,274.833893 93.040161,273.895538 101.351723,272.943451 
M106.685562,223.059372 
	C103.887619,223.384628 101.082047,223.655334 98.293213,224.045670 
	C90.757782,225.100372 83.176590,225.936951 75.720322,227.403076 
	C71.901428,228.153976 70.625740,231.516876 71.184013,235.203125 
	C71.749992,238.940231 73.866280,241.300278 77.966583,240.957733 
	C86.882484,240.212891 95.807968,239.533432 104.698990,238.550873 
	C120.509537,236.803650 136.299484,234.868530 152.094025,232.978302 
	C161.798080,231.816971 171.524643,230.789520 181.182251,229.316208 
	C186.180756,228.553665 188.382919,225.446884 187.868530,221.148560 
	C187.292038,216.331406 184.034317,214.709351 179.731583,215.068832 
	C171.808075,215.730850 163.902557,216.624863 155.999359,217.509857 
	C139.860825,219.317032 123.728813,221.182312 106.685562,223.059372 
M111.447449,203.984238 
	C113.581635,203.671875 115.709175,203.301575 117.851044,203.056290 
	C135.982376,200.979919 154.121216,198.968018 172.246368,196.839584 
	C177.440567,196.229614 181.007629,192.680008 180.802536,188.742432 
	C180.587921,184.622131 176.951279,182.003738 171.416641,182.019089 
	C170.085968,182.022781 168.745468,182.035034 167.426498,182.188934 
	C142.217834,185.130630 117.011177,188.089676 91.805855,191.060028 
	C89.334373,191.351288 86.868546,191.703079 84.410271,192.091217 
	C79.904175,192.802658 77.570686,195.993652 78.095947,200.650345 
	C78.588348,205.015854 82.739105,207.556366 88.336838,206.857437 
	C95.742706,205.932770 103.143234,204.965408 111.447449,203.984238 
M179.864746,297.252289 
	C184.489960,296.805786 189.120178,296.405121 193.739136,295.901245 
	C199.637329,295.257751 202.956070,292.291168 202.806625,287.916138 
	C202.658463,283.579559 199.001083,280.975769 193.097382,281.016144 
	C192.098984,281.022949 191.092468,281.000214 190.103867,281.114105 
	C167.044266,283.770386 143.983902,286.420471 120.931175,289.135345 
	C116.829010,289.618408 112.658676,290.020386 108.705322,291.124207 
	C105.029671,292.150482 102.702202,295.096649 103.395317,299.060303 
	C104.055779,302.837219 106.501793,305.224030 110.780266,304.991211 
	C112.938606,304.873718 115.131950,305.157257 117.267754,304.905518 
	C137.850220,302.480072 158.423798,299.979279 179.864746,297.252289 
M201.330872,314.017731 
	C188.471451,315.439667 175.611237,316.854584 162.752975,318.286896 
	C157.479721,318.874298 152.202255,319.435059 146.941956,320.124329 
	C141.197754,320.876984 138.660065,323.796417 139.063034,328.959320 
	C139.412186,333.432861 141.611771,335.247253 147.568573,334.916260 
	C154.018646,334.557861 160.442001,333.676239 166.868744,332.949707 
	C178.735764,331.608032 190.607437,330.297699 202.455261,328.800812 
	C207.593933,328.151611 210.053970,325.410095 209.932220,321.135681 
	C209.789810,316.137329 206.962540,314.028015 201.330872,314.017731 
M348.441559,351.727539 
	C349.630157,353.302765 350.620941,355.090820 352.044220,356.413513 
	C356.426941,360.486633 362.486969,361.185822 368.224915,358.251160 
	C374.181580,355.204620 376.695648,350.305450 376.024292,343.541595 
	C375.461914,337.876068 372.499695,333.295685 366.980347,331.680573 
	C361.287567,330.014709 355.437653,330.433838 351.187592,334.836029 
	C346.900238,339.276886 345.742828,344.960846 348.441559,351.727539 
M287.428131,364.852356 
	C287.873749,364.154358 288.341827,363.469574 288.761505,362.756287 
	C292.234589,356.853363 291.520050,350.339935 286.866791,345.393524 
	C282.502594,340.754456 275.354828,339.466248 269.523804,342.267914 
	C263.888550,344.975525 260.890472,350.964813 261.904327,357.489441 
	C263.807373,369.736206 276.201691,373.660065 287.428131,364.852356 
z" />
    <path fill="#075025" opacity="1.000000" stroke="none" d="
M186.105438,150.627899 
	C179.526855,150.371643 173.245728,149.756470 167.077774,150.339142 
	C154.528625,151.524612 142.041092,153.361206 129.525986,154.911682 
	C128.703079,155.013626 127.861641,154.976791 127.028633,154.984726 
	C120.438354,155.047592 117.438553,153.073227 117.101212,148.457474 
	C116.760780,143.799561 120.002632,140.798798 126.287300,140.089935 
	C141.791672,138.341187 157.356842,137.019318 172.787903,134.772568 
	C182.993271,133.286667 191.901733,135.109756 199.918198,141.472397 
	C207.219803,147.267639 210.453705,155.416550 212.810486,164.039108 
	C216.257935,176.652054 216.273346,177.038879 228.940628,175.916565 
	C244.476807,174.540054 259.950500,172.454681 275.448761,170.655106 
	C291.602844,168.779404 307.755219,166.889236 323.906158,164.986618 
	C339.235138,163.180817 354.562927,161.364105 369.887909,159.524780 
	C376.146820,158.773590 382.387329,157.858826 388.654541,157.190674 
	C393.118134,156.714798 397.078979,159.959747 396.876343,164.475876 
	C396.318115,176.913788 395.403595,189.336655 394.548279,201.759842 
	C394.138031,207.718658 393.466431,213.659363 393.046051,219.617630 
	C391.643860,239.493317 390.315674,259.374237 388.925995,279.250854 
	C388.616455,283.678802 386.182404,286.353790 381.780914,286.890625 
	C367.448181,288.638733 353.101074,290.268890 338.763031,291.973846 
	C319.812561,294.227234 300.868744,296.536652 281.915466,298.765869 
	C272.188538,299.909912 262.411682,300.693298 252.731644,302.137329 
	C249.298965,302.649384 245.106064,303.795563 243.053894,306.189697 
	C241.076233,308.496948 240.278625,313.058655 241.012527,316.141907 
	C241.994949,320.269196 245.685333,323.216217 250.418045,322.892273 
	C258.194489,322.360077 265.948822,321.454285 273.696960,320.570160 
	C289.525665,318.764069 305.344482,316.871460 321.166534,315.007507 
	C336.824463,313.162872 352.475983,311.262512 368.141510,309.485229 
	C373.745728,308.849426 379.376068,308.390991 385.006744,308.059448 
	C389.144958,307.815796 392.296021,309.425812 392.829010,313.947357 
	C393.363220,318.479065 391.242645,321.357513 386.654999,322.017365 
	C379.268768,323.079742 371.869720,324.063965 364.461517,324.960419 
	C348.480988,326.894196 332.493378,328.770020 316.504578,330.634399 
	C301.007690,332.441437 285.505005,334.199280 270.006226,335.990204 
	C265.555695,336.504486 261.073334,336.852539 256.668304,337.631622 
	C240.514618,340.488770 226.616882,330.552734 225.286743,314.321075 
	C224.640076,306.429565 227.425720,299.099396 233.776917,293.886322 
	C236.675095,291.507477 236.618393,289.303314 235.614471,286.133514 
	C222.815247,245.720734 210.141785,205.268127 197.387527,164.841064 
	C195.498505,158.853439 192.928772,153.280380 186.105438,150.627899 
M355.544769,190.346161 
	C354.366425,192.841904 353.188080,195.337646 351.514191,198.321503 
	C343.796783,212.462219 332.076050,222.290405 317.554901,229.636841 
	C340.258179,234.079468 359.030090,244.850250 374.222137,262.283295 
	C374.241211,260.017242 373.641541,258.408783 372.952026,256.839783 
	C369.981537,250.080475 369.026367,243.121689 371.141571,235.962341 
	C371.498413,234.754486 373.021332,232.769409 373.543518,232.906265 
	C378.578308,234.225830 377.762299,230.516998 377.951263,227.927551 
	C379.193970,210.898941 380.394775,193.866730 381.428009,176.824707 
	C381.491821,175.772354 379.964081,173.643997 379.261139,173.679642 
	C373.637787,173.964706 368.008728,174.482407 362.445190,175.341751 
	C361.175934,175.537781 359.573914,177.139374 359.128998,178.438019 
	C357.846558,182.181229 357.076965,186.100159 355.544769,190.346161 
M363.425476,270.050751 
	C362.103699,269.908997 360.747162,269.911926 359.465393,269.603821 
	C340.323944,265.002533 325.474274,254.710953 316.937836,236.586441 
	C314.636932,231.701233 311.850342,230.255066 306.781494,231.942581 
	C303.929901,232.891876 300.782806,232.953629 296.872681,233.552490 
	C300.018799,223.442856 304.647858,215.407806 310.995178,208.607712 
	C317.422333,201.722122 324.039032,194.765854 331.607666,189.264404 
	C338.865509,183.988861 347.451416,180.540390 355.442444,176.290787 
	C351.989624,176.601044 348.527008,176.828400 345.085602,177.235352 
	C326.139893,179.475723 307.198181,181.750717 288.257385,184.032379 
	C275.084351,185.619247 261.931580,187.397827 248.734833,188.750275 
	C244.202301,189.214767 244.117584,191.106827 245.305588,194.646683 
	C248.713501,204.800995 248.897995,215.222504 247.039856,225.664810 
	C246.196915,230.401810 244.743698,235.030212 243.567337,239.707886 
	C243.876816,239.977188 244.186310,240.246506 244.495789,240.515823 
	C259.196136,213.325851 280.800446,196.275894 312.417053,192.524384 
	C312.128021,194.280426 312.131683,195.142578 311.841553,195.890808 
	C305.730164,211.651215 296.096619,225.092590 284.120087,236.828690 
	C273.577850,247.159332 261.324860,255.040756 247.659775,260.734985 
	C246.364883,261.274597 245.597397,263.079742 244.585052,264.297333 
	C246.226303,264.436523 247.898895,264.850433 249.503357,264.667236 
	C256.382385,263.881989 263.255951,262.118011 270.103668,262.242462 
	C277.433136,262.375641 284.706635,264.286682 290.732208,270.435028 
	C277.083374,277.527893 263.357788,278.383331 248.431183,275.130127 
	C249.219696,278.512970 249.770981,281.040741 250.403519,283.547974 
	C251.093994,286.284973 252.901031,287.161621 255.649078,286.835419 
	C275.417969,284.488586 295.200043,282.251953 314.962921,279.856384 
	C319.024231,279.364075 323.546051,279.295288 326.955597,277.406555 
	C339.372894,270.527893 352.099915,268.393860 365.837708,272.352264 
	C368.167725,273.023651 370.767426,272.759155 373.242554,272.927032 
	C373.269562,272.434662 373.296570,271.942291 373.323578,271.449951 
	C371.948059,271.289246 370.567444,271.162964 369.198364,270.958954 
	C367.558075,270.714600 365.927612,270.403900 363.425476,270.050751 
M226.577438,204.548798 
	C228.537827,200.418716 230.498199,196.288635 232.458588,192.158539 
	C232.028671,191.664536 231.598755,191.170532 231.168839,190.676529 
	C228.438446,191.351822 225.393066,191.535782 223.151154,192.973038 
	C222.382584,193.465775 223.455215,197.138885 224.002274,199.278290 
	C224.443039,201.002090 225.358917,202.604370 226.577438,204.548798 
z" />
    <path fill="#075025" opacity="1.000000" stroke="none" d="
M100.900650,272.963623 
	C93.040161,273.895538 85.633850,274.833893 78.219109,275.700012 
	C76.406342,275.911804 74.562561,276.002655 72.738922,275.949005 
	C67.693672,275.800598 65.367889,273.735321 65.071724,269.304413 
	C64.782768,264.981232 67.430046,261.693085 72.016327,261.133789 
	C83.876694,259.687378 95.756226,258.398987 107.623543,257.008545 
	C126.739166,254.768829 145.848160,252.472275 164.966171,250.253235 
	C172.055313,249.430374 179.147629,248.517944 186.265167,248.094086 
	C191.899750,247.758545 195.022049,250.200272 195.487976,254.372910 
	C195.943771,258.454926 192.570602,262.168915 187.379547,262.815399 
	C175.522842,264.292053 163.641769,265.572083 151.774689,266.966919 
	C134.965103,268.942596 118.159203,270.949738 100.900650,272.963623 
z" />
    <path fill="#075025" opacity="1.000000" stroke="none" d="
M107.139839,223.041504 
	C123.728813,221.182312 139.860825,219.317032 155.999359,217.509857 
	C163.902557,216.624863 171.808075,215.730850 179.731583,215.068832 
	C184.034317,214.709351 187.292038,216.331406 187.868530,221.148560 
	C188.382919,225.446884 186.180756,228.553665 181.182251,229.316208 
	C171.524643,230.789520 161.798080,231.816971 152.094025,232.978302 
	C136.299484,234.868530 120.509537,236.803650 104.698990,238.550873 
	C95.807968,239.533432 86.882484,240.212891 77.966583,240.957733 
	C73.866280,241.300278 71.749992,238.940231 71.184013,235.203125 
	C70.625740,231.516876 71.901428,228.153976 75.720322,227.403076 
	C83.176590,225.936951 90.757782,225.100372 98.293213,224.045670 
	C101.082047,223.655334 103.887619,223.384628 107.139839,223.041504 
z" />
    <path fill="#075025" opacity="1.000000" stroke="none" d="
M110.996750,204.000305 
	C103.143234,204.965408 95.742706,205.932770 88.336838,206.857437 
	C82.739105,207.556366 78.588348,205.015854 78.095947,200.650345 
	C77.570686,195.993652 79.904175,192.802658 84.410271,192.091217 
	C86.868546,191.703079 89.334373,191.351288 91.805855,191.060028 
	C117.011177,188.089676 142.217834,185.130630 167.426498,182.188934 
	C168.745468,182.035034 170.085968,182.022781 171.416641,182.019089 
	C176.951279,182.003738 180.587921,184.622131 180.802536,188.742432 
	C181.007629,192.680008 177.440567,196.229614 172.246368,196.839584 
	C154.121216,198.968018 135.982376,200.979919 117.851044,203.056290 
	C115.709175,203.301575 113.581635,203.671875 110.996750,204.000305 
z" />
    <path fill="#075025" opacity="1.000000" stroke="none" d="
M179.432343,297.376160 
	C158.423798,299.979279 137.850220,302.480072 117.267754,304.905518 
	C115.131950,305.157257 112.938606,304.873718 110.780266,304.991211 
	C106.501793,305.224030 104.055779,302.837219 103.395317,299.060303 
	C102.702202,295.096649 105.029671,292.150482 108.705322,291.124207 
	C112.658676,290.020386 116.829010,289.618408 120.931175,289.135345 
	C143.983902,286.420471 167.044266,283.770386 190.103867,281.114105 
	C191.092468,281.000214 192.098984,281.022949 193.097382,281.016144 
	C199.001083,280.975769 202.658463,283.579559 202.806625,287.916138 
	C202.956070,292.291168 199.637329,295.257751 193.739136,295.901245 
	C189.120178,296.405121 184.489960,296.805786 179.432343,297.376160 
z" />
    <path fill="#075025" opacity="1.000000" stroke="none" d="
M201.769257,314.022766 
	C206.962540,314.028015 209.789810,316.137329 209.932220,321.135681 
	C210.053970,325.410095 207.593933,328.151611 202.455261,328.800812 
	C190.607437,330.297699 178.735764,331.608032 166.868744,332.949707 
	C160.442001,333.676239 154.018646,334.557861 147.568573,334.916260 
	C141.611771,335.247253 139.412186,333.432861 139.063034,328.959320 
	C138.660065,323.796417 141.197754,320.876984 146.941956,320.124329 
	C152.202255,319.435059 157.479721,318.874298 162.752975,318.286896 
	C175.611237,316.854584 188.471451,315.439667 201.769257,314.022766 
z" />
    <path fill="#075025" opacity="1.000000" stroke="none" d="
M348.302399,351.357910 
	C345.742828,344.960846 346.900238,339.276886 351.187592,334.836029 
	C355.437653,330.433838 361.287567,330.014709 366.980347,331.680573 
	C372.499695,333.295685 375.461914,337.876068 376.024292,343.541595 
	C376.695648,350.305450 374.181580,355.204620 368.224915,358.251160 
	C362.486969,361.185822 356.426941,360.486633 352.044220,356.413513 
	C350.620941,355.090820 349.630157,353.302765 348.302399,351.357910 
z" />
    <path fill="#075025" opacity="1.000000" stroke="none" d="
M287.183990,365.133850 
	C276.201691,373.660065 263.807373,369.736206 261.904327,357.489441 
	C260.890472,350.964813 263.888550,344.975525 269.523804,342.267914 
	C275.354828,339.466248 282.502594,340.754456 286.866791,345.393524 
	C291.520050,350.339935 292.234589,356.853363 288.761505,362.756287 
	C288.341827,363.469574 287.873749,364.154358 287.183990,365.133850 
z" />
    <path fill="#ffffff" opacity="1.000000" stroke="none" d="
M363.859192,270.086304 
	C365.927612,270.403900 367.558075,270.714600 369.198364,270.958954 
	C370.567444,271.162964 371.948059,271.289246 373.323578,271.449951 
	C373.296570,271.942291 373.269562,272.434662 373.242554,272.927032 
	C370.767426,272.759155 368.167725,273.023651 365.837708,272.352264 
	C352.099915,268.393860 339.372894,270.527893 326.955597,277.406555 
	C323.546051,279.295288 319.024231,279.364075 314.962921,279.856384 
	C295.200043,282.251953 275.417969,284.488586 255.649078,286.835419 
	C252.901031,287.161621 251.093994,286.284973 250.403519,283.547974 
	C249.770981,281.040741 249.219696,278.512970 248.431183,275.130127 
	C263.357788,278.383331 277.083374,277.527893 290.732208,270.435028 
	C284.706635,264.286682 277.433136,262.375641 270.103668,262.242462 
	C263.255951,262.118011 256.382385,263.881989 249.503357,264.667236 
	C247.898895,264.850433 246.226303,264.436523 244.585052,264.297333 
	C245.597397,263.079742 246.364883,261.274597 247.659775,260.734985 
	C261.324860,255.040756 273.577850,247.159332 284.120087,236.828690 
	C296.096619,225.092590 305.730164,211.651215 311.841553,195.890808 
	C312.131683,195.142578 312.128021,194.280426 312.417053,192.524384 
	C280.800446,196.275894 259.196136,213.325851 244.495789,240.515823 
	C244.186310,240.246506 243.876816,239.977188 243.567337,239.707886 
	C244.743698,235.030212 246.196915,230.401810 247.039856,225.664810 
	C248.897995,215.222504 248.713501,204.800995 245.305588,194.646683 
	C244.117584,191.106827 244.202301,189.214767 248.734833,188.750275 
	C261.931580,187.397827 275.084351,185.619247 288.257385,184.032379 
	C307.198181,181.750717 326.139893,179.475723 345.085602,177.235352 
	C348.527008,176.828400 351.989624,176.601044 355.448059,176.289886 
	C347.451416,180.540390 338.865509,183.988861 331.607666,189.264404 
	C324.039032,194.765854 317.422333,201.722122 310.995178,208.607712 
	C304.647858,215.407806 300.018799,223.442856 296.872681,233.552490 
	C300.782806,232.953629 303.929901,232.891876 306.781494,231.942581 
	C311.850342,230.255066 314.636932,231.701233 316.937836,236.586441 
	C325.474274,254.710953 340.323944,265.002533 359.465393,269.603821 
	C360.747162,269.911926 362.103699,269.908997 363.859192,270.086304 
z" />
    <path fill="#ffffff" opacity="1.000000" stroke="none" d="
M356.105927,189.950058 
	C357.076965,186.100159 357.846558,182.181229 359.128998,178.438019 
	C359.573914,177.139374 361.175934,175.537781 362.445190,175.341751 
	C368.008728,174.482407 373.637787,173.964706 379.261139,173.679642 
	C379.964081,173.643997 381.491821,175.772354 381.428009,176.824707 
	C380.394775,193.866730 379.193970,210.898941 377.951263,227.927551 
	C377.762299,230.516998 378.578308,234.225830 373.543518,232.906265 
	C373.021332,232.769409 371.498413,234.754486 371.141571,235.962341 
	C369.026367,243.121689 369.981537,250.080475 372.952026,256.839783 
	C373.641541,258.408783 374.241211,260.017242 374.222137,262.283295 
	C359.030090,244.850250 340.258179,234.079468 317.554901,229.636841 
	C332.076050,222.290405 343.796783,212.462219 351.970856,198.377823 
	C352.094910,200.698349 351.934662,203.004089 351.400909,205.219833 
	C348.528656,217.143448 349.902771,228.666580 354.547485,239.882614 
	C355.060577,241.121597 356.044159,242.165710 356.903656,243.439728 
	C372.039398,226.021484 373.300812,188.153763 365.374115,180.693771 
	C362.287781,183.776154 359.196869,186.863113 356.105927,189.950058 
z" />
    <path fill="#075025" opacity="1.000000" stroke="none" d="
M355.825348,190.148102 
	C359.196869,186.863113 362.287781,183.776154 365.374115,180.693771 
	C373.300812,188.153763 372.039398,226.021484 356.903656,243.439728 
	C356.044159,242.165710 355.060577,241.121597 354.547485,239.882614 
	C349.902771,228.666580 348.528656,217.143448 351.400909,205.219833 
	C351.934662,203.004089 352.094910,200.698349 352.218628,198.133759 
	C353.188080,195.337646 354.366425,192.841904 355.825348,190.148102 
z" />
    <path fill="#ffffff" opacity="1.000000" stroke="none" d="
M226.320724,204.404694 
	C225.358917,202.604370 224.443039,201.002090 224.002274,199.278290 
	C223.455215,197.138885 222.382584,193.465775 223.151154,192.973038 
	C225.393066,191.535782 228.438446,191.351822 231.168839,190.676529 
	C231.598755,191.170532 232.028671,191.664536 232.458588,192.158539 
	C230.498199,196.288635 228.537827,200.418716 226.320724,204.404694 
z" />
</svg>